<?xml version="1.0" encoding="UTF-8" standalone="no"?>
<svg
   xmlns:dc="http://purl.org/dc/elements/1.1/"
   xmlns:cc="http://creativecommons.org/ns#"
   xmlns:rdf="http://www.w3.org/1999/02/22-rdf-syntax-ns#"
   xmlns:svg="http://www.w3.org/2000/svg"
   xmlns="http://www.w3.org/2000/svg"
   xmlns:xlink="http://www.w3.org/1999/xlink"
   id="svg7"
   xml:space="preserve"
   viewBox="0 0 1024 768"
   y="0px"
   x="0px"
   version="1.1"><metadata
     id="metadata13"><rdf:RDF><cc:Work
         rdf:about=""><dc:format>image/svg+xml</dc:format><dc:type
           rdf:resource="http://purl.org/dc/dcmitype/StillImage" /></cc:Work></rdf:RDF></metadata><defs
     id="defs11" /><g
     id="g3"
     transform="matrix(1.5,0,0,1.2,512,384)"><path
       style="fill:#5d82a7"
       d="m 152.4,-201.9 c 46.6,26 86.9,68.5 97.2,116.9 10.4,48.3 -9.3,102.5 -32.2,150.3 -22.9,47.8 -49,89.1 -85.8,121.8 -36.8,32.8 -84.2,56.8 -135.5,62.2 -51.4,5.4 -106.6,-7.9 -148.6,-38.9 -42,-31 -70.8,-79.8 -87.5,-132.2 -16.8,-52.4 -21.5,-108.6 -2.2,-153.4 19.4,-44.8 62.9,-78.2 107.3,-105 44.4,-26.7 89.6,-46.8 138.7,-52 49.1,-5.3 102,4.2 148.6,30.3 z"
       id="path" /></g><animate
     fill="freeze"
     values="M120.2,-176.8C149.6,-144.2,162.8,-100.7,175.5,-57.9C188.3,-15,200.7,27.1,195.6,70.1C190.6,113,168.2,156.8,132.7,178C97.2,199.1,48.6,197.5,4.9,190.8C-38.8,184.1,-77.6,172.1,-115.3,151.7C-153,131.3,-189.7,102.4,-205.6,64.2C-221.6,26.1,-216.8,-21.4,-204,-67.9C-191.2,-114.4,-170.2,-160,-134.9,-190.6C-99.5,-221.3,-49.8,-237.2,-2.2,-234.2C45.5,-231.2,90.9,-209.5,120.2,-176.8Z; M152.4,-201.9C199,-175.9,239.3,-133.4,249.6,-85C260,-36.7,240.3,17.5,217.4,65.3C194.5,113.1,168.4,154.4,131.6,187.1C94.8,219.9,47.4,243.9,-3.9,249.3C-55.3,254.7,-110.5,241.4,-152.5,210.4C-194.5,179.4,-223.3,130.6,-240,78.2C-256.8,25.8,-261.5,-30.4,-242.2,-75.2C-222.8,-120,-179.3,-153.4,-134.9,-180.2C-90.5,-206.9,-45.3,-227,3.8,-232.2C52.9,-237.5,105.8,-228,152.4,-201.9Z; M101.9,-120.6C144.2,-109.5,199.1,-96,223.6,-62.7C248.2,-29.4,242.5,23.8,220.4,65.3C198.2,106.8,159.7,136.8,120.2,173.1C80.7,209.4,40.4,252.2,-4.7,258.7C-49.8,265.2,-99.5,235.3,-119,192.5C-138.5,149.7,-127.8,93.8,-144.4,46.1C-161,-1.6,-205.1,-41.3,-214.9,-88C-224.7,-134.6,-200.2,-188.3,-158.7,-199.6C-117.2,-210.9,-58.6,-180,-14.4,-160.1C29.8,-140.3,59.6,-131.6,101.9,-120.6Z; M113.1,-161.5C148.6,-129.9,180.8,-99.5,181.6,-66.3C182.3,-33.1,151.5,3.1,132.4,37.1C113.2,71.2,105.7,103.2,85.6,142.9C65.4,182.7,32.7,230.4,-3.9,235.8C-40.6,241.2,-81.1,204.3,-114.7,168.9C-148.3,133.5,-175,99.5,-198.1,57.5C-221.3,15.5,-240.9,-34.6,-221,-64.4C-201.2,-94.2,-141.7,-103.7,-98.3,-132.8C-54.9,-161.8,-27.4,-210.4,5.7,-218.2C38.8,-226.1,77.6,-193.1,113.1,-161.5Z; M102,-143.7C138.9,-113.5,180.3,-92.8,196.8,-59.7C213.4,-26.7,205.1,18.6,190.6,61.5C176.1,104.4,155.4,144.8,122.5,162.7C89.7,180.5,44.9,175.8,-1.2,177.4C-47.2,179,-94.4,187,-113.8,164.8C-133.1,142.5,-124.6,90.1,-143.6,43.8C-162.6,-2.6,-209.2,-42.9,-216.4,-85.7C-223.7,-128.5,-191.5,-173.9,-148.8,-202.2C-106.2,-230.5,-53.1,-241.7,-10.3,-227.6C32.5,-213.4,65,-173.9,102,-143.7Z; M120.2,-176.8C149.6,-144.2,162.8,-100.7,175.5,-57.9C188.3,-15,200.7,27.1,195.6,70.1C190.6,113,168.2,156.8,132.7,178C97.2,199.1,48.6,197.5,4.9,190.8C-38.8,184.1,-77.6,172.1,-115.3,151.7C-153,131.3,-189.7,102.4,-205.6,64.2C-221.6,26.1,-216.8,-21.4,-204,-67.9C-191.2,-114.4,-170.2,-160,-134.9,-190.6C-99.5,-221.3,-49.8,-237.2,-2.2,-234.2C45.5,-231.2,90.9,-209.5,120.2,-176.8Z"
     keySplines="0.9 0.1 0.1 0.9;0.9 0.1 0.1 0.9;0.9 0.1 0.1 0.9;0.9 0.1 0.1 0.9;0.9 0.1 0.1 0.9"
     calcMode="spline"
     keyTimes="0; 0.2; 0.4; 0.6; 0.8; 1"
     attributeName="d"
     repeatCount="indefinite"
     dur="20s"
     attributeType="XML"
     xlink:href="#path" /><path
     id="path5"
     transform="translate(153.6 115.2) scale(0.7)"
     fill="#1d002d"
     d="m393.32 302.41c-8.53 0-16.18 1.97-22.98 5.8-6.92 3.83-12.23 9.02-16.19 15.69-3.95 6.68-5.8 14.21-5.8 22.37 0 8.27 1.85 15.69 5.8 22.36 3.96 6.67 9.27 11.98 16.19 15.81 6.8 3.83 14.45 5.68 22.98 5.68 8.4 0 16.06-1.85 22.98-5.68 6.79-3.7 12.11-9.02 16.06-15.69s5.93-14.08 5.93-22.48c0-8.28-1.98-15.82-5.93-22.49s-9.27-11.86-16.06-15.69c-6.92-3.71-14.58-5.68-22.98-5.68zm-137.32 0.61v86.49h6.3v-41.14h57.82v41.14h6.3v-86.49h-6.3v39.79h-57.82v-39.79h-6.3zm304.51 0v86.49h6.3v-41.14h57.83v41.14h6.3v-86.49h-6.3v39.79h-57.83v-39.79h-6.3zm100.63 0v86.49h6.3v-86.49h-6.3zm36.44 0v86.49h6.3v-75.12l58.93 75.12h5.19v-86.49h-6.3v75.12l-58.81-75.12h-5.31zm-185.04 0.74v8.7h-0.27c-0.15 0-0.52 0.02-0.82 0.03-0.31 0.02-0.82 0.06-1.14 0.09-0.31 0.03-0.79 0.09-1.05 0.13-0.27 0.05-0.65 0.11-0.86 0.15s-0.6 0.13-0.87 0.19-0.74 0.19-1.03 0.27c-0.3 0.09-0.76 0.23-1.02 0.32s-0.67 0.24-0.9 0.34c-0.24 0.09-0.58 0.23-0.76 0.31s-0.49 0.22-0.69 0.32c-0.2 0.09-0.57 0.28-0.81 0.41-0.25 0.13-0.68 0.38-0.96 0.54-0.28 0.17-0.73 0.46-1 0.64-0.27 0.19-0.7 0.49-0.95 0.68-0.24 0.19-0.58 0.45-0.75 0.59s-0.48 0.41-0.68 0.6c-0.21 0.18-0.6 0.56-0.87 0.83s-0.67 0.69-0.89 0.94c-0.21 0.25-0.5 0.58-0.63 0.74-0.12 0.16-0.35 0.45-0.49 0.64-0.15 0.2-0.42 0.58-0.6 0.84-0.18 0.27-0.44 0.68-0.58 0.91-0.14 0.22-0.37 0.63-0.52 0.9s-0.37 0.69-0.48 0.93c-0.12 0.25-0.3 0.64-0.39 0.86-0.1 0.22-0.24 0.56-0.31 0.74s-0.21 0.58-0.31 0.88c-0.11 0.3-0.25 0.78-0.33 1.06s-0.2 0.74-0.26 1.02c-0.07 0.28-0.15 0.69-0.19 0.91s-0.11 0.63-0.15 0.9c-0.04 0.28-0.09 0.72-0.11 0.98-0.03 0.26-0.06 0.54-0.07 0.62s-0.02 6.54-0.03 14.36l-0.03 14.21-0.04 0.39c-0.03 0.22-0.09 0.59-0.13 0.84s-0.13 0.68-0.2 0.96-0.2 0.72-0.28 0.97c-0.09 0.26-0.22 0.61-0.29 0.77-0.06 0.17-0.21 0.5-0.33 0.74-0.11 0.24-0.3 0.6-0.41 0.79-0.1 0.19-0.3 0.51-0.44 0.72-0.13 0.2-0.36 0.52-0.5 0.71s-0.38 0.49-0.54 0.67c-0.16 0.19-0.45 0.5-0.65 0.7-0.2 0.19-0.51 0.49-0.7 0.64-0.18 0.16-0.5 0.42-0.71 0.58-0.21 0.15-0.53 0.38-0.71 0.5s-0.48 0.3-0.67 0.4c-0.18 0.11-0.46 0.26-0.63 0.34-0.16 0.08-0.47 0.23-0.69 0.32-0.22 0.1-0.52 0.22-0.67 0.27-0.14 0.05-0.4 0.13-0.58 0.19-0.17 0.06-0.49 0.14-0.71 0.2-0.21 0.05-0.57 0.13-0.8 0.17-0.22 0.04-0.62 0.1-0.88 0.13-0.27 0.03-0.71 0.07-0.98 0.08l-0.5 0.02v-8.72h-26.13v26.13h26.13v-8.71h0.26c0.15 0 0.53-0.01 0.84-0.03s0.82-0.06 1.13-0.09 0.78-0.09 1.05-0.13c0.26-0.04 0.7-0.12 0.98-0.18 0.28-0.05 0.72-0.15 0.98-0.21 0.25-0.07 0.62-0.17 0.82-0.22 0.2-0.06 0.63-0.19 0.95-0.3s0.79-0.29 1.05-0.39c0.26-0.11 0.68-0.29 0.93-0.4s0.66-0.31 0.91-0.44c0.24-0.12 0.64-0.34 0.88-0.48s0.58-0.34 0.76-0.45c0.17-0.11 0.5-0.33 0.72-0.48s0.57-0.39 0.76-0.54c0.19-0.14 0.48-0.36 0.64-0.49s0.49-0.41 0.74-0.63c0.24-0.22 0.65-0.6 0.9-0.85s0.6-0.61 0.77-0.79c0.17-0.19 0.47-0.54 0.66-0.77 0.2-0.24 0.51-0.64 0.7-0.89 0.2-0.26 0.48-0.66 0.64-0.9s0.43-0.66 0.6-0.94 0.41-0.71 0.55-0.96c0.13-0.24 0.31-0.61 0.41-0.81 0.09-0.2 0.24-0.51 0.31-0.69 0.08-0.18 0.22-0.52 0.32-0.75 0.09-0.24 0.24-0.65 0.33-0.91s0.24-0.72 0.32-1.02c0.09-0.29 0.21-0.76 0.28-1.03 0.06-0.28 0.16-0.75 0.22-1.05 0.05-0.3 0.12-0.74 0.15-0.98 0.04-0.24 0.08-0.64 0.11-0.88 0.02-0.25 0.05-0.7 0.07-1 0.02-0.36 0.03-5.35 0.03-14.11 0-8.87 0.01-13.71 0.03-13.98 0.01-0.23 0.05-0.58 0.07-0.77 0.03-0.18 0.07-0.49 0.1-0.66 0.04-0.18 0.1-0.47 0.14-0.65 0.04-0.17 0.13-0.52 0.2-0.77 0.08-0.25 0.18-0.58 0.24-0.74s0.18-0.46 0.26-0.66c0.09-0.19 0.25-0.54 0.37-0.78 0.12-0.23 0.32-0.6 0.45-0.82s0.35-0.55 0.48-0.74c0.13-0.18 0.38-0.51 0.54-0.72 0.17-0.2 0.45-0.52 0.62-0.71s0.46-0.47 0.64-0.64c0.17-0.16 0.45-0.41 0.61-0.54 0.17-0.14 0.51-0.4 0.75-0.57 0.25-0.18 0.63-0.43 0.85-0.56 0.22-0.14 0.65-0.37 0.95-0.52s0.71-0.33 0.9-0.4c0.19-0.08 0.54-0.21 0.77-0.28 0.23-0.08 0.66-0.2 0.94-0.28 0.29-0.07 0.71-0.16 0.95-0.2 0.23-0.04 0.6-0.09 0.82-0.11 0.23-0.03 0.63-0.06 0.9-0.07l0.48-0.02v8.72h26.13v-26.12h-13.06-13.06zm-119.22 4.45c7.16 0 13.71 1.73 19.64 4.94 5.81 3.34 10.38 7.91 13.84 13.72 3.34 5.81 5.07 12.23 5.07 19.4 0 7.16-1.73 13.71-5.07 19.52-3.46 5.8-8.03 10.37-13.84 13.59-5.93 3.33-12.48 4.94-19.64 4.94-7.29 0-13.84-1.61-19.77-4.94-5.93-3.22-10.5-7.79-13.84-13.59-3.45-5.81-5.06-12.36-5.06-19.52 0-7.17 1.61-13.59 5.06-19.4 3.34-5.81 7.91-10.38 13.84-13.72 5.93-3.21 12.48-4.94 19.77-4.94zm127.92 4.25h4.36 4.36v8.71h-8.72v-8.71zm-60.96 60.97h4.35 4.36v8.71h-8.71v-8.71zm50.38 43.82c-0.38 0.02-0.56 0.21-0.56 0.56v9.34l-1.05-0.43c-0.64-0.27-1.65-0.54-3.03-0.81-1.37-0.27-2.76-0.4-4.15-0.4-4.13 0-7.5 1.34-10.11 4.02-2.59 2.67-3.89 6.51-3.89 11.53 0 5.01 1.26 8.84 3.78 11.5 2.54 2.65 5.76 3.97 9.68 3.97 2.11 0 3.99-0.51 5.66-1.53 0.64-0.37 1.31-0.86 2.01-1.47 0.71-0.63 1.18-1.09 1.39-1.4l0.48 3.03c0.06 0.36 0.26 0.54 0.62 0.54h3c0.38 0 0.57-0.18 0.57-0.54v-37.35c-0.02-0.37-0.21-0.56-0.57-0.56h-3.83zm-128.78 8.26c-3.25 0-5.91 0.75-7.99 2.25-2.07 1.5-3.25 3.5-3.54 5.98-0.03 0.36 0.15 0.54 0.57 0.54h3.46c0.32 0 0.53-0.18 0.64-0.54 0.44-1.28 1.27-2.34 2.46-3.16 1.22-0.82 2.68-1.24 4.4-1.24 5.51 0 8.26 2.75 8.26 8.24v0.26h-9.36c-3.8 0-6.77 0.84-8.9 2.52-2.11 1.67-3.16 3.95-3.16 6.84 0 2.88 1.03 5.16 3.08 6.84 2.07 1.66 4.89 2.49 8.45 2.49 2.43 0 4.61-0.51 6.54-1.53 0.73-0.37 1.46-0.85 2.2-1.44 0.73-0.61 1.2-1.09 1.42-1.43l0.48 3.03c0.05 0.36 0.26 0.54 0.62 0.54h3c0.38 0 0.56-0.18 0.56-0.54v-17.58c0-3.85-1.13-6.81-3.4-8.91-2.27-2.11-5.53-3.16-9.79-3.16zm40.41 0c-3.95 0-7.24 1.33-9.87 4-2.61 2.64-3.91 6.47-3.91 11.47 0 4.99 1.3 8.83 3.91 11.53 2.61 2.68 5.92 4.02 9.92 4.02 4.02 0 7.17-0.8 9.44-2.41s3.75-3.88 4.45-6.81c0.02-0.09 0.03-0.17 0.03-0.24 0.01-0.29-0.17-0.43-0.57-0.43h-3.46c-0.26 0.02-0.49 0.2-0.67 0.56-0.87 1.82-2 3.19-3.37 4.1-1.38 0.91-3.32 1.37-5.82 1.37-2.51 0-4.62-0.98-6.36-2.95-1.71-1.98-2.57-4.9-2.57-8.76 0-3.87 0.86-6.76 2.57-8.69 1.72-1.95 3.97-2.93 6.76-2.93 4 0 6.85 1.84 8.53 5.5 0.18 0.36 0.39 0.54 0.64 0.54h3.46c0.48 0.01 0.67-0.2 0.56-0.65-0.7-2.89-2.16-5.15-4.4-6.78-2.23-1.63-5.32-2.44-9.27-2.44zm38.95 0c-3.25 0-5.91 0.75-7.98 2.25-2.08 1.5-3.26 3.5-3.54 5.98-0.04 0.36 0.15 0.54 0.56 0.54h3.46c0.32 0 0.53-0.18 0.64-0.54 0.45-1.28 1.27-2.34 2.47-3.16 1.21-0.82 2.68-1.24 4.39-1.24 5.51 0 8.26 2.75 8.26 8.24v0.26h-9.35c-3.81 0-6.78 0.84-8.91 2.52-2.11 1.67-3.16 3.95-3.16 6.84 0 2.88 1.03 5.16 3.08 6.84 2.08 1.66 4.89 2.49 8.45 2.49 2.43 0 4.61-0.51 6.54-1.53 0.74-0.37 1.47-0.85 2.2-1.44 0.73-0.61 1.21-1.09 1.42-1.43l0.48 3.03c0.06 0.36 0.26 0.54 0.62 0.54h3c0.38 0 0.57-0.18 0.57-0.54v-17.58c0-3.85-1.14-6.81-3.41-8.91-2.27-2.11-5.53-3.16-9.79-3.16zm81.89 0c-4.22 0-7.64 1.33-10.27 4-2.61 2.64-3.91 6.47-3.91 11.47 0 4.99 1.3 8.84 3.91 11.56 2.63 2.7 5.93 4.05 9.92 4.05s7.11-0.79 9.38-2.36c2.27-1.58 3.78-3.69 4.51-6.33 0.11-0.43-0.07-0.64-0.54-0.64h-3.46c-0.23 0-0.45 0.17-0.67 0.53-1.82 3.29-4.75 4.93-8.79 4.93-2.56 0-4.67-0.82-6.33-2.46-1.66-1.65-2.64-4.13-2.95-7.46h22.47c0.73 0 1.1-0.36 1.1-1.09v-1.37c0-4.47-1.34-8.06-4.02-10.75-2.66-2.72-6.11-4.08-10.35-4.08zm42.2 0c-2.07 0-3.97 0.5-5.68 1.5-0.66 0.38-1.3 0.82-1.91 1.34-0.59 0.52-0.98 0.88-1.18 1.08-0.18 0.19-0.32 0.34-0.43 0.45l-0.51-3c-0.03-0.38-0.23-0.57-0.58-0.57h-3.03c-0.36 0-0.54 0.19-0.54 0.57v28.28c0 0.36 0.18 0.54 0.54 0.54h3.86c0.35 0 0.53-0.18 0.53-0.54v-20.05c0-0.11 0.35-0.6 1.05-1.48 0.69-0.87 1.75-1.8 3.16-2.78 1.41-1.01 2.92-1.51 4.53-1.51s2.98 0.75 4.1 2.23c1.15 1.48 1.72 3.67 1.72 6.57v17.02c0 0.36 0.18 0.54 0.54 0.54h3.86c0.35 0 0.53-0.18 0.53-0.54v-20.05c0-0.11 0.35-0.6 1.05-1.48 0.7-0.87 1.75-1.8 3.16-2.78 1.42-1.01 2.93-1.51 4.53-1.51 1.61 0 2.98 0.75 4.11 2.23 1.14 1.48 1.71 3.67 1.71 6.57v17.02c0 0.36 0.18 0.54 0.54 0.54h3.86c0.36 0 0.54-0.18 0.54-0.54v-17.02c0-4.04-0.98-7.15-2.93-9.33-1.93-2.2-4.52-3.3-7.77-3.3-1.68 0-3.29 0.39-4.83 1.18-1.53 0.79-2.68 1.56-3.43 2.31s-1.38 1.51-1.9 2.28c-0.84-1.85-2.07-3.27-3.68-4.27s-3.45-1.5-5.52-1.5zm41 0.8c-0.33 0-0.49 0.12-0.49 0.35 0 0.08 0.02 0.15 0.06 0.22l6.08 17.51c1.33 3.8 2.77 6.46 4.35 7.96 1.57 1.5 3.79 2.25 6.65 2.25-0.66 2.72-1.46 4.59-2.39 5.61-0.93 1.01-2.28 1.52-4.05 1.52-1.75 0-3.54-0.36-5.36-1.1-0.38-0.14-0.56 0.01-0.56 0.46v2.68c0 0.29 0.18 0.53 0.56 0.72l0.75 0.27c1.61 0.56 3.37 0.83 5.28 0.83 2.74 0 4.94-0.87 6.62-2.62 1.7-1.74 3.06-4.53 4.08-8.37l7.32-27.72c0.03-0.07 0.05-0.14 0.05-0.22 0-0.23-0.17-0.35-0.51-0.35h-3.67c-0.45 0-0.72 0.19-0.83 0.57l-6.3 23.89c-1.81 0-3.23-0.48-4.26-1.45-1.04-0.98-1.96-2.61-2.77-4.88l-6.11-17.56c-0.11-0.38-0.38-0.57-0.8-0.57h-3.7zm-124.04 3.03c2.83 0 5.43 0.55 7.81 1.64v15.93c0 0.23-0.5 0.92-1.5 2.06-2.17 2.47-4.5 3.7-7 3.7-2.65 0-4.78-0.98-6.39-2.95-1.6-1.98-2.41-4.9-2.41-8.76 0-3.87 0.88-6.76 2.63-8.69 1.77-1.95 4.06-2.93 6.86-2.93zm40.87 0c2.5 0 4.65 0.89 6.46 2.66 1.8 1.75 2.79 4.07 2.95 6.94h-18.64c0.31-3.14 1.3-5.53 2.98-7.15 1.68-1.63 3.76-2.45 6.25-2.45zm-162.38 12.37h9.36v5.2c0 0.03-0.13 0.25-0.4 0.64-0.25 0.38-0.65 0.85-1.21 1.42-0.55 0.57-1.19 1.14-1.9 1.69-0.7 0.54-1.6 1.01-2.71 1.42-1.09 0.39-2.23 0.59-3.41 0.59-2.19 0-3.89-0.46-5.09-1.39-1.18-0.93-1.77-2.29-1.77-4.08 0-3.66 2.38-5.49 7.13-5.49zm79.37 0h9.35v5.2c0 0.03-0.13 0.25-0.4 0.64-0.25 0.38-0.65 0.85-1.21 1.42-0.55 0.57-1.18 1.14-1.9 1.69-0.7 0.54-1.6 1.01-2.71 1.42-1.09 0.39-2.22 0.59-3.4 0.59-2.2 0-3.9-0.46-5.1-1.39-1.18-0.93-1.77-2.29-1.77-4.08 0-3.66 2.38-5.49 7.14-5.49z" /></svg>