<?xml version="1.0" encoding="UTF-8" standalone="no"?>
<svg
   xmlns:dc="http://purl.org/dc/elements/1.1/"
   xmlns:cc="http://creativecommons.org/ns#"
   xmlns:rdf="http://www.w3.org/1999/02/22-rdf-syntax-ns#"
   xmlns:svg="http://www.w3.org/2000/svg"
   xmlns="http://www.w3.org/2000/svg"
   id="svg14"
   xml:space="preserve"
   viewBox="0 0 200 200"
   y="0px"
   x="0px"
   version="1.1"><metadata
     id="metadata20"><rdf:RDF><cc:Work
         rdf:about=""><dc:format>image/svg+xml</dc:format><dc:type
           rdf:resource="http://purl.org/dc/dcmitype/StillImage" /></cc:Work></rdf:RDF></metadata><defs
     id="defs18" /><style
     id="style2">
#bounce{
	animation: bounce 2s ease-in-out infinite;
}

@keyframes bounce {
    0%,
    25%,
    50%,
    75%,
    100% {
        transform: translateY(0);
    }
    40% {
        transform: translateY(-20px);
    }
    60% {
        transform: translateY(-10px);
    }
}
</style><g
     transform="matrix(0.8,0,0,0.8,20,20)"
     id="bounce"><defs
       id="defs54654" /><linearGradient
       spreadMethod="pad"
       y2="0.30000001"
       x2="-0.1"
       y1="1.2"
       x1="0.30000001"
       id="3d_gradient2-logo-f144657f-5eeb-4bae-bfd3-07c1aa559b4b"><stop
         id="stop54631"
         stop-opacity="1"
         stop-color="#ffffff"
         offset="0%" /><stop
         id="stop54633"
         stop-opacity="1"
         stop-color="#000000"
         offset="100%" /></linearGradient><linearGradient
       gradientTransform="rotate(-30)"
       spreadMethod="pad"
       y2="0.30000001"
       x2="-0.1"
       y1="1.2"
       x1="0.30000001"
       id="3d_gradient3-logo-f144657f-5eeb-4bae-bfd3-07c1aa559b4b"><stop
         id="stop54636"
         stop-opacity="1"
         stop-color="#ffffff"
         offset="0%" /><stop
         id="stop54638"
         stop-opacity="1"
         stop-color="#cccccc"
         offset="50%" /><stop
         id="stop54640"
         stop-opacity="1"
         stop-color="#000000"
         offset="100%" /></linearGradient><path
       style="fill:#90afd8;stroke-width:0.71942502"
       d="m 142.00377,40.001056 h -18.00002 v 12.00001 l -0.37,4e-4 c -0.2036,0 -0.712,0.018 -1.13,0.04 -0.418,0.0224 -1.12,0.0764 -1.56,0.120798 -0.44,0.044 -1.0972,0.126 -1.46,0.182001 -0.3628,0.0564 -0.89403,0.147201 -1.18,0.202403 -0.286,0.0548 -0.82597,0.172403 -1.2,0.260798 -0.374,0.0884 -1.01281,0.256799 -1.42001,0.374404 -0.4072,0.117597 -1.03719,0.316 -1.4,0.440798 -0.3628,0.124799 -0.92482,0.332001 -1.24798,0.460799 -0.3236,0.128799 -0.79159,0.322799 -1.04,0.431202 -0.2488,0.108799 -0.6768,0.304403 -0.95202,0.434799 -0.2748,0.130799 -0.77878,0.387202 -1.12,0.570403 -0.3408,0.182799 -0.93482,0.521598 -1.32,0.752015 -0.3848,0.230403 -1.00597,0.626404 -1.38,0.880001 -0.374,0.253597 -0.95878,0.672404 -1.3,0.930792 -0.3408,0.258403 -0.80878,0.628404 -1.04,0.821584 -0.2308,0.193201 -0.65241,0.559597 -0.93684,0.814029 -0.2844,0.254403 -0.82237,0.768778 -1.19561,1.142807 -0.3732,0.374 -0.92403,0.958778 -1.22403,1.300001 -0.2996,0.340799 -0.6896,0.800001 -0.86676,1.020001 -0.1768,0.22 -0.4864,0.618403 -0.687207,0.885612 -0.200799,0.266799 -0.570799,0.788778 -0.821583,1.160001 -0.251202,0.370799 -0.611598,0.930432 -0.801224,1.243166 -0.19,0.313202 -0.510799,0.871224 -0.713202,1.240001 -0.202403,0.369202 -0.502,0.950001 -0.665202,1.291224 -0.163202,0.340799 -0.405202,0.872016 -0.537202,1.180001 -0.132403,0.308001 -0.321202,0.767195 -0.419597,1.020001 -0.0988,0.252799 -0.294001,0.798778 -0.434404,1.212807 -0.14,0.414 -0.344403,1.070792 -0.453597,1.460001 -0.109597,0.388799 -0.271202,1.022015 -0.36,1.407196 -0.0884,0.384799 -0.206,0.947986 -0.262001,1.250792 -0.0556,0.303202 -0.145201,0.861224 -0.199597,1.240001 -0.054,0.379202 -0.125597,0.986404 -0.158799,1.34921 -0.0332,0.362799 -0.072,0.75 -0.086,0.86 -0.0144,0.110001 -0.0388,9.010799 -0.054,19.779873 l -0.0284,19.579873 -0.0668,0.54 c -0.0368,0.2968 -0.113597,0.81878 -0.170799,1.16 -0.0572,0.3412 -0.182799,0.93482 -0.279597,1.32 -0.0964,0.3848 -0.272403,0.98799 -0.390403,1.34001 -0.118403,0.352 -0.292001,0.82877 -0.386404,1.06 -0.094,0.2312 -0.300403,0.69 -0.458403,1.02 -0.158,0.33 -0.410403,0.81597 -0.561202,1.08 -0.150403,0.264 -0.424799,0.7104 -0.61,0.99201 -0.184799,0.282 -0.495202,0.72281 -0.689598,0.98 -0.194,0.2576 -0.532,0.6748 -0.751224,0.92799 -0.218798,0.2528 -0.621202,0.6832 -0.894389,0.95597 -0.272799,0.2732 -0.702799,0.6756 -0.955972,0.89482 -0.252799,0.2188 -0.694,0.574 -0.980001,0.78921 -0.286,0.2148 -0.726835,0.5248 -0.98,0.68841 -0.252799,0.164 -0.6668,0.416 -0.920001,0.56 -0.252799,0.144 -0.643598,0.354 -0.868418,0.46639 -0.224403,0.11241 -0.656404,0.31041 -0.960001,0.44 -0.303202,0.13 -0.713598,0.29361 -0.911583,0.364 -0.198001,0.0704 -0.558001,0.19041 -0.800001,0.2668 -0.242,0.0768 -0.682799,0.20041 -0.980001,0.2752 -0.296799,0.0748 -0.792015,0.18241 -1.100001,0.23921 -0.308,0.0572 -0.859209,0.138 -1.225181,0.18 -0.366,0.0424 -0.973166,0.0892 -1.350001,0.1044 l -0.68849,0.0288 v -12.0144 h -36.00003 v 36.00003 H 76.000014 V 147.9997 l 0.370001,-4.1e-4 c 0.203597,0 0.721223,-0.0188 1.150001,-0.0412 0.428799,-0.0224 1.131224,-0.0764 1.560001,-0.1204 0.428799,-0.0436 1.077195,-0.1252 1.440001,-0.1808 0.363202,-0.0556 0.97403,-0.164 1.358419,-0.2404 0.384,-0.0768 0.986835,-0.2116 1.340001,-0.3 0.352799,-0.088 0.865972,-0.2248 1.140792,-0.30321 0.274403,-0.0788 0.860001,-0.26559 1.300792,-0.41559 0.441202,-0.15 1.095181,-0.3908 1.453167,-0.53521 0.358403,-0.14479 0.93403,-0.39039 1.27921,-0.546 0.345201,-0.15559 0.906835,-0.42759 1.247627,-0.604 0.341201,-0.17679 0.89,-0.476 1.220001,-0.6648 0.33,-0.18879 0.797986,-0.46759 1.040001,-0.62 0.242,-0.1524 0.692,-0.44879 1,-0.65879 0.308001,-0.21001 0.775972,-0.54401 1.040001,-0.74238 0.264,-0.1988 0.660001,-0.506 0.880001,-0.6832 0.22,-0.1772 0.679202,-0.568 1.020001,-0.86799 0.341201,-0.3 0.902015,-0.82597 1.246404,-1.16878 0.344403,-0.34279 0.820432,-0.83561 1.057195,-1.09518 0.237201,-0.25919 0.650799,-0.73518 0.919569,-1.05719 0.268403,-0.3224 0.703202,-0.87324 0.965971,-1.22482 0.2628,-0.3516 0.6584,-0.90677 0.87878,-1.23439 0.2208,-0.3272 0.59,-0.91043 0.82079,-1.29518 0.2308,-0.38521 0.56961,-0.97921 0.75238,-1.32 0.1832,-0.34121 0.43959,-0.84518 0.57039,-1.12001 0.1304,-0.2752 0.326,-0.7032 0.43481,-0.95201 0.10839,-0.2484 0.30239,-0.7164 0.43119,-1.04 0.12881,-0.3232 0.336,-0.88518 0.46081,-1.24799 0.1248,-0.3632 0.32319,-0.99324 0.4408,-1.4 0.11759,-0.4072 0.28759,-1.05122 0.378,-1.43158 0.0904,-0.38041 0.22559,-1.02842 0.3012,-1.44 0.0752,-0.41161 0.1736,-1.01842 0.2188,-1.34842 0.0452,-0.33 0.1092,-0.87878 0.142,-1.22 0.0324,-0.34121 0.0776,-0.96202 0.1,-1.38 0.026,-0.49121 0.0408,-7.36692 0.0408,-19.44031 4e-4,-12.219436 0.0148,-18.880592 0.0412,-19.259729 0.0224,-0.319202 0.068,-0.792015 0.1012,-1.051224 0.0332,-0.259202 0.0968,-0.673202 0.1412,-0.920001 0.044,-0.246799 0.1252,-0.646799 0.1804,-0.888778 0.0548,-0.242 0.1824,-0.719202 0.2836,-1.060001 0.1012,-0.341201 0.2516,-0.801583 0.3336,-1.023166 0.0824,-0.222 0.2436,-0.626799 0.3584,-0.900001 0.11481,-0.273201 0.34081,-0.757986 0.5024,-1.076835 0.1616,-0.319202 0.4436,-0.827627 0.626,-1.130001 0.1828,-0.302403 0.47921,-0.761583 0.65921,-1.020001 0.18,-0.258403 0.51559,-0.704 0.74597,-0.990001 0.23,-0.286 0.61359,-0.729568 0.85237,-0.985972 0.23881,-0.256 0.63241,-0.65 0.87439,-0.87518 0.242,-0.225597 0.6256,-0.564799 0.85281,-0.754389 0.2268,-0.189202 0.6904,-0.543202 1.02964,-0.785612 0.33919,-0.242799 0.86439,-0.590799 1.16719,-0.773167 0.30281,-0.182403 0.89238,-0.499597 1.31044,-0.704403 0.418,-0.205202 0.97597,-0.458799 1.24,-0.564 0.264,-0.104799 0.74122,-0.278404 1.06,-0.385202 0.3192,-0.107202 0.90403,-0.274799 1.3,-0.373202 0.396,-0.098 0.98122,-0.222403 1.3,-0.276 0.3192,-0.054 0.83202,-0.125597 1.14,-0.159202 0.308,-0.034 0.86158,-0.0736 1.23,-0.0888 l 0.67,-0.0272 v 12.01296 h 36.00003 v -36.00003 z m 0,12.00001 h 6 V 64.001075 H 136.00376 V 52.001066 Z M 58.003698,136.00113 h 6.000005 v 12.00001 h -12.00001 v -12.00001 z"
       id="icon" /></g></svg>